<svg width="800" height="450" viewBox="0 0 800 450" xmlns="http://www.w3.org/2000/svg">
  <defs>
    <!-- Premium background matching Canva style -->
    <linearGradient id="bgGrad" x1="0%" y1="0%" x2="100%" y2="100%">
      <stop offset="0%" stop-color="#050918" />
      <stop offset="100%" stop-color="#0D152D" />
    </linearGradient>
    <filter id="blur" x="-20%" y="-20%" width="140%" height="140%">
      <feGaussianBlur stdDeviation="30" />
    </filter>
    <filter id="glow" x="-20%" y="-20%" width="140%" height="140%">
      <feGaussianBlur stdDeviation="10" result="blur" />
      <feMerge>
        <feMergeNode in="blur" />
        <feMergeNode in="SourceGraphic" />
      </feMerge>
    </filter>
  </defs>
  
  <!-- Solid Premium Background -->
  <rect width="800" height="450" fill="url(#bgGrad)" />
  
  <!-- Subtle Elegant Outer Border (Like Canva) -->
  <rect x="25" y="25" width="750" height="400" rx="15" fill="none" stroke="#FFC21A" stroke-width="2" opacity="0.15" />
  
  <!-- Centered Logo Group -->
  <g>
    
      <circle cx="400" cy="225" r="120" fill="#3B82F6" opacity="0.15" filter="url(#blur)" />
      <path d="M 400 340 C 310 270 260 200 260 150 C 260 100 310 70 360 100 C 400 125 400 125 400 125 C 400 125 400 125 440 100 C 490 70 540 100 540 150 C 540 200 490 270 400 340 Z" fill="#FFC21A" filter="url(#glow)" />
      <circle cx="350" cy="140" r="10" fill="#3B82F6" />
      <circle cx="450" cy="140" r="10" fill="#3B82F6" />
      <circle cx="400" cy="230" r="12" fill="#FFFFFF" />
      <path d="M 350 140 L 400 230 L 450 140" stroke="#3B82F6" stroke-width="4" opacity="0.7" />
    
  </g>
</svg>